<svg width="24" height="25" viewBox="0 0 24 25" fill="none" xmlns="http://www.w3.org/2000/svg">
<path d="M1.5 20.5282H22.5M13.5 20.5282V4.02817C13.5 3.82926 13.421 3.63849 13.2803 3.49784C13.1397 3.35719 12.9489 3.27817 12.75 3.27817H3.75C3.55109 3.27817 3.36032 3.35719 3.21967 3.49784C3.07902 3.63849 3 3.82926 3 4.02817V20.5282M21 20.5282V10.0282C21 9.82926 20.921 9.63849 20.7803 9.49784C20.6397 9.35719 20.4489 9.27817 20.25 9.27817H13.5M6 7.02817H9M7.5 13.0282H10.5M6 16.7782H9M16.5 16.7782H18M16.5 13.0282H18" stroke="#667085" stroke-width="2" stroke-linecap="round" stroke-linejoin="round"/>
</svg>
