<svg width="24" height="21" viewBox="0 0 24 21" fill="none" xmlns="http://www.w3.org/2000/svg">
<path d="M17 19.2782V17.2782C17 16.2173 16.5786 15.1999 15.8284 14.4497C15.0783 13.6996 14.0609 13.2782 13 13.2782H5C3.93913 13.2782 2.92172 13.6996 2.17157 14.4497C1.42143 15.1999 1 16.2173 1 17.2782V19.2782M23 19.2782V17.2782C22.9993 16.3919 22.7044 15.5309 22.1614 14.8305C21.6184 14.13 20.8581 13.6297 20 13.4082M16 1.40817C16.8604 1.62847 17.623 2.12887 18.1676 2.83048C18.7122 3.53209 19.0078 4.395 19.0078 5.28317C19.0078 6.17134 18.7122 7.03425 18.1676 7.73586C17.623 8.43747 16.8604 8.93787 16 9.15817M13 5.27817C13 7.48731 11.2091 9.27817 9 9.27817C6.79086 9.27817 5 7.48731 5 5.27817C5 3.06903 6.79086 1.27817 9 1.27817C11.2091 1.27817 13 3.06903 13 5.27817Z" stroke="#667085" stroke-width="2" stroke-linecap="round" stroke-linejoin="round"/>
</svg>
