<svg width="20" height="20" viewBox="0 0 20 20" fill="none" xmlns="http://www.w3.org/2000/svg">
<path d="M6.87503 13.125L3.75003 16.25M12.0547 2.32024L7.18753 7.18743C7.18753 7.18743 5.02346 6.10149 2.70315 7.97649C2.63488 8.03174 2.57901 8.10077 2.5392 8.17906C2.49939 8.25735 2.47653 8.34315 2.47211 8.43087C2.46768 8.51859 2.4818 8.60626 2.51353 8.68815C2.54527 8.77005 2.5939 8.84434 2.65628 8.90618L11.0782 17.3281C11.1412 17.3922 11.2173 17.442 11.3014 17.474C11.3854 17.506 11.4754 17.5195 11.5651 17.5136C11.6549 17.5077 11.7423 17.4824 11.8214 17.4396C11.9005 17.3968 11.9694 17.3374 12.0235 17.2656C12.6797 16.3984 13.711 14.6015 12.8125 12.8124L17.6797 7.94524C17.7388 7.88709 17.7857 7.81777 17.8177 7.74132C17.8497 7.66487 17.8662 7.58281 17.8662 7.49993C17.8662 7.41705 17.8497 7.335 17.8177 7.25855C17.7857 7.18209 17.7388 7.11277 17.6797 7.05462L12.9453 2.32024C12.8872 2.26119 12.8179 2.21429 12.7414 2.18228C12.665 2.15027 12.5829 2.13379 12.5 2.13379C12.4171 2.13379 12.3351 2.15027 12.2586 2.18228C12.1822 2.21429 12.1129 2.26119 12.0547 2.32024Z" stroke="#475467" stroke-width="1.67" stroke-linecap="round" stroke-linejoin="round"/>
</svg>
