<svg width="18" height="18" viewBox="0 0 18 18" fill="none" xmlns="http://www.w3.org/2000/svg">
<path d="M0.663566 5.54151C0.663566 6.00267 1.03741 6.37651 1.49857 6.37651C1.95972 6.37651 2.33357 6.00267 2.33357 5.54151H0.663566ZM5.62555 2.34254C6.08671 2.34254 6.46055 1.9687 6.46055 1.50754C6.46055 1.04638 6.08671 0.672538 5.62555 0.672538V2.34254ZM2.33357 12.4585C2.33357 11.9974 1.95972 11.6235 1.49857 11.6235C1.03741 11.6235 0.663566 11.9974 0.663566 12.4585H2.33357ZM5.62555 17.3275C6.08671 17.3275 6.46055 16.9536 6.46055 16.4925C6.46055 16.0313 6.08671 15.6575 5.62555 15.6575V17.3275ZM15.6664 5.54151C15.6664 6.00267 16.0403 6.37651 16.5014 6.37651C16.9626 6.37651 17.3364 6.00267 17.3364 5.54151H15.6664ZM12.3745 0.672538C11.9133 0.672538 11.5395 1.04638 11.5395 1.50754C11.5395 1.9687 11.9133 2.34254 12.3745 2.34254V0.672538ZM17.3364 12.4585C17.3364 11.9974 16.9626 11.6235 16.5014 11.6235C16.0403 11.6235 15.6664 11.9974 15.6664 12.4585H17.3364ZM12.3745 15.6575C11.9133 15.6575 11.5395 16.0313 11.5395 16.4925C11.5395 16.9536 11.9133 17.3275 12.3745 17.3275V15.6575ZM1.57588 8.16501C1.11472 8.16501 0.740877 8.53885 0.740877 9.00001C0.740877 9.46117 1.11472 9.83501 1.57588 9.83501V8.16501ZM7.40921 9.00001L7.99964 9.59044C8.15624 9.43385 8.24421 9.22147 8.24421 9.00001C8.24421 8.77855 8.15624 8.56617 7.99964 8.40957L7.40921 9.00001ZM5.08298 5.49291C4.75689 5.16682 4.2282 5.16682 3.90211 5.49291C3.57602 5.819 3.57602 6.34769 3.90211 6.67378L5.08298 5.49291ZM3.90211 11.3262C3.57602 11.6523 3.57602 12.181 3.90211 12.5071C4.2282 12.8332 4.75689 12.8332 5.08298 12.5071L3.90211 11.3262ZM16.4241 9.83501C16.8853 9.83501 17.2591 9.46117 17.2591 9.00001C17.2591 8.53885 16.8853 8.16501 16.4241 8.16501V9.83501ZM10.5908 9.00001L10.0004 8.40957C9.84377 8.56617 9.7558 8.77855 9.7558 9.00001C9.7558 9.22147 9.84377 9.43385 10.0004 9.59044L10.5908 9.00001ZM14.0979 6.67378C14.424 6.34769 14.424 5.819 14.0979 5.49291C13.7718 5.16682 13.2431 5.16682 12.917 5.49291L14.0979 6.67378ZM12.917 12.5071C13.2431 12.8332 13.7718 12.8332 14.0979 12.5071C14.424 12.181 14.424 11.6523 14.0979 11.3262L12.917 12.5071ZM2.33357 5.54151V3.1742H0.663566V5.54151H2.33357ZM3.16523 2.34254H5.62555V0.672538H3.16523V2.34254ZM2.33357 3.1742C2.33357 2.71489 2.70592 2.34254 3.16523 2.34254V0.672538C1.7836 0.672538 0.663566 1.79257 0.663566 3.1742H2.33357ZM0.663566 12.4585V14.8258H2.33357V12.4585H0.663566ZM3.16523 17.3275H5.62555V15.6575H3.16523V17.3275ZM0.663566 14.8258C0.663566 16.2074 1.7836 17.3275 3.16523 17.3275V15.6575C2.70592 15.6575 2.33357 15.2851 2.33357 14.8258H0.663566ZM17.3364 5.54151V3.1742H15.6664V5.54151H17.3364ZM14.8348 0.672538H12.3745V2.34254H14.8348V0.672538ZM17.3364 3.1742C17.3364 1.79257 16.2164 0.672538 14.8348 0.672538V2.34254C15.2941 2.34254 15.6664 2.71489 15.6664 3.1742H17.3364ZM15.6664 12.4585V14.8258H17.3364V12.4585H15.6664ZM14.8348 15.6575H12.3745V17.3275H14.8348V15.6575ZM15.6664 14.8258C15.6664 15.2851 15.2941 15.6575 14.8348 15.6575V17.3275C16.2164 17.3275 17.3364 16.2074 17.3364 14.8258H15.6664ZM1.57588 9.83501H7.40921V8.16501H1.57588V9.83501ZM3.90211 6.67378L6.81877 9.59044L7.99964 8.40957L5.08298 5.49291L3.90211 6.67378ZM6.81877 8.40957L3.90211 11.3262L5.08298 12.5071L7.99964 9.59044L6.81877 8.40957ZM16.4241 8.16501H10.5908V9.83501H16.4241V8.16501ZM12.917 5.49291L10.0004 8.40957L11.1812 9.59044L14.0979 6.67378L12.917 5.49291ZM10.0004 9.59044L12.917 12.5071L14.0979 11.3262L11.1812 8.40957L10.0004 9.59044Z" fill="#344054"/>
</svg>
