<svg width="10" height="5" viewBox="0 0 10 5" fill="none" xmlns="http://www.w3.org/2000/svg">
<path d="M9.09698 0.354689C9.06829 0.286439 9.02004 0.228207 8.95831 0.187333C8.89659 0.146458 8.82414 0.12477 8.7501 0.125002H1.2501C1.17607 0.12477 1.10362 0.146458 1.04189 0.187333C0.980166 0.228207 0.931917 0.286439 0.903229 0.354689C0.876212 0.423956 0.869358 0.499456 0.88346 0.572455C0.897562 0.645455 0.932044 0.71297 0.982916 0.767189L4.73292 4.51719C4.80459 4.5865 4.9004 4.62524 5.0001 4.62524C5.09981 4.62524 5.19561 4.5865 5.26729 4.51719L9.01729 0.767189C9.06816 0.71297 9.10265 0.645455 9.11675 0.572455C9.13085 0.499456 9.124 0.423956 9.09698 0.354689V0.354689Z" fill="#D0D5DD"/>
</svg>
