<svg width="22" height="21" viewBox="0 0 22 21" fill="none" xmlns="http://www.w3.org/2000/svg">
<path d="M15 19.2782V3.27817C15 2.74773 14.7893 2.23903 14.4142 1.86395C14.0391 1.48888 13.5304 1.27817 13 1.27817H9C8.46957 1.27817 7.96086 1.48888 7.58579 1.86395C7.21071 2.23903 7 2.74773 7 3.27817V19.2782M3 5.27817H19C20.1046 5.27817 21 6.1736 21 7.27817V17.2782C21 18.3827 20.1046 19.2782 19 19.2782H3C1.89543 19.2782 1 18.3827 1 17.2782V7.27817C1 6.1736 1.89543 5.27817 3 5.27817Z" stroke="#667085" stroke-width="2" stroke-linecap="round" stroke-linejoin="round"/>
</svg>
