<svg width="15" height="15" viewBox="0 0 15 15" fill="none" xmlns="http://www.w3.org/2000/svg">
<path d="M12.54 14.9083H2.34176L2.44071 14.4962C3.76661 14.2104 4.64395 13.9379 5.07272 13.6588C5.71918 13.2467 6.2535 12.6352 6.66248 11.8309C7.07806 11.0201 7.28915 10.1693 7.28915 9.27201C7.28915 9.14572 7.28255 8.95962 7.27595 8.71369C6.78781 9.71733 6.18753 10.4485 5.4817 10.9071C4.78247 11.3657 4.07005 11.5983 3.34443 11.5983C2.41432 11.5983 1.62274 11.2726 0.976284 10.6146C0.329826 9.95661 0 9.15902 0 8.20855C0 7.27138 0.296843 6.48708 0.890529 5.84901C1.48422 5.20429 2.15706 4.87861 2.90906 4.87861C3.39061 4.87861 4.04366 5.08465 4.86823 5.49674C4.53181 4.93178 4.31412 4.5064 4.20858 4.22724C4.10963 3.93479 4.06345 3.6224 4.06345 3.29671C4.06345 2.37284 4.38009 1.59518 5.01335 0.957111C5.64662 0.319037 6.4382 0 7.3815 0C8.3248 0 9.12298 0.31239 9.76284 0.950464C10.4093 1.58854 10.7391 2.34625 10.7391 3.23025C10.7391 3.94808 10.4621 4.70579 9.90796 5.49674C10.5808 5.17106 10.9832 4.9916 11.1217 4.95172C11.3394 4.88525 11.5835 4.85202 11.8539 4.85202C12.6587 4.85202 13.3513 5.17106 13.9318 5.80913C14.5255 6.44056 14.8224 7.22486 14.8224 8.16203C14.8224 9.13243 14.4991 9.94996 13.8461 10.608C13.2062 11.2593 12.4344 11.5917 11.5241 11.5917C11.0162 11.5917 10.4951 11.472 9.96074 11.2261C9.43301 10.9735 8.97126 10.6412 8.57547 10.2358C8.29182 9.93667 7.9488 9.43153 7.52662 8.72034C7.5596 10.0031 7.7509 11.0201 8.10712 11.7711C8.46992 12.5156 9.01743 13.1337 9.75624 13.6255C10.251 13.9579 11.1481 14.2503 12.441 14.4962L12.54 14.9083V14.9083Z" fill="#667085"/>
</svg>
