<svg width="56" height="56" viewBox="0 0 56 56" fill="none" xmlns="http://www.w3.org/2000/svg">
<rect x="4" y="4" width="48" height="48" rx="24" fill="#F4EBFF"/>
<mask id="path-2-inside-1_401_31670" fill="white">
<path d="M23.7891 37.2812H19.5781C19.1043 37.2812 18.7188 36.8957 18.7188 36.4219V32.3398C18.7188 31.8652 18.334 31.4805 17.8594 31.4805C17.3847 31.4805 17 31.8652 17 32.3398V36.4219C17 37.8435 18.1565 39 19.5781 39H23.7891C24.2637 39 24.6484 38.6153 24.6484 38.1406C24.6484 37.666 24.2637 37.2812 23.7891 37.2812Z"/>
<path d="M23.3207 23.5663C22.984 23.2317 22.4399 23.2333 22.1053 23.57C21.7707 23.9066 21.7724 24.4507 22.109 24.7853L24.5219 27.1836H17.8594C17.3847 27.1836 17 27.5683 17 28.043C17 28.5176 17.3847 28.9023 17.8594 28.9023H24.4554L22.106 31.2607C21.771 31.5969 21.7721 32.1411 22.1083 32.476C22.276 32.6431 22.4954 32.7266 22.7148 32.7266C22.9353 32.7266 23.1558 32.6423 23.3237 32.4737L25.9558 29.8315C26.4428 29.3445 26.7109 28.6971 26.7109 28.0085C26.7109 27.3198 26.4428 26.6724 25.954 26.1836L23.3207 23.5663Z"/>
<path d="M17.8594 24.5625C18.334 24.5625 18.7187 24.1778 18.7187 23.7031V19.5781C18.7187 19.1043 19.1043 18.7187 19.5781 18.7187H23.7891C24.2637 18.7187 24.6484 18.334 24.6484 17.8594C24.6484 17.3847 24.2637 17 23.7891 17H19.5781C18.1565 17 17 18.1565 17 19.5781V23.7031C17 24.1778 17.3847 24.5625 17.8594 24.5625Z"/>
<path d="M38.1406 27.1836H31.4781L33.891 24.7853C34.2276 24.4507 34.2293 23.9066 33.8947 23.57C33.5601 23.2333 33.016 23.2317 32.6793 23.5663L30.0442 26.1855C29.5572 26.6724 29.2891 27.3198 29.2891 28.0085C29.2891 28.6971 29.5572 29.3445 30.043 29.8303L32.6763 32.4737C32.8443 32.6423 33.0647 32.7266 33.2852 32.7266C33.5045 32.7266 33.724 32.6431 33.8917 32.476C34.2279 32.1411 34.229 31.5969 33.894 31.2607L31.5446 28.9023H38.1406C38.6153 28.9023 39 28.5176 39 28.043C39 27.5683 38.6153 27.1836 38.1406 27.1836Z"/>
<path d="M36.4219 17H32.2109C31.7363 17 31.3516 17.3847 31.3516 17.8594C31.3516 18.334 31.7363 18.7187 32.2109 18.7187H36.4219C36.8957 18.7187 37.2812 19.1043 37.2812 19.5781V23.7031C37.2812 24.1778 37.666 24.5625 38.1406 24.5625C38.6153 24.5625 39 24.1778 39 23.7031V19.5781C39 18.1565 37.8435 17 36.4219 17Z"/>
<path d="M38.1406 31.4805C37.666 31.4805 37.2812 31.8652 37.2812 32.3398V36.4219C37.2812 36.8957 36.8957 37.2812 36.4219 37.2812H32.2109C31.7363 37.2812 31.3516 37.666 31.3516 38.1406C31.3516 38.6153 31.7363 39 32.2109 39H36.4219C37.8435 39 39 37.8435 39 36.4219V32.3398C39 31.8652 38.6153 31.4805 38.1406 31.4805Z"/>
</mask>
<path d="M23.7891 37.2812H19.5781C19.1043 37.2812 18.7188 36.8957 18.7188 36.4219V32.3398C18.7188 31.8652 18.334 31.4805 17.8594 31.4805C17.3847 31.4805 17 31.8652 17 32.3398V36.4219C17 37.8435 18.1565 39 19.5781 39H23.7891C24.2637 39 24.6484 38.6153 24.6484 38.1406C24.6484 37.666 24.2637 37.2812 23.7891 37.2812Z" fill="#101828"/>
<path d="M23.3207 23.5663C22.984 23.2317 22.4399 23.2333 22.1053 23.57C21.7707 23.9066 21.7724 24.4507 22.109 24.7853L24.5219 27.1836H17.8594C17.3847 27.1836 17 27.5683 17 28.043C17 28.5176 17.3847 28.9023 17.8594 28.9023H24.4554L22.106 31.2607C21.771 31.5969 21.7721 32.1411 22.1083 32.476C22.276 32.6431 22.4954 32.7266 22.7148 32.7266C22.9353 32.7266 23.1558 32.6423 23.3237 32.4737L25.9558 29.8315C26.4428 29.3445 26.7109 28.6971 26.7109 28.0085C26.7109 27.3198 26.4428 26.6724 25.954 26.1836L23.3207 23.5663Z" fill="#101828"/>
<path d="M17.8594 24.5625C18.334 24.5625 18.7187 24.1778 18.7187 23.7031V19.5781C18.7187 19.1043 19.1043 18.7187 19.5781 18.7187H23.7891C24.2637 18.7187 24.6484 18.334 24.6484 17.8594C24.6484 17.3847 24.2637 17 23.7891 17H19.5781C18.1565 17 17 18.1565 17 19.5781V23.7031C17 24.1778 17.3847 24.5625 17.8594 24.5625Z" fill="#101828"/>
<path d="M38.1406 27.1836H31.4781L33.891 24.7853C34.2276 24.4507 34.2293 23.9066 33.8947 23.57C33.5601 23.2333 33.016 23.2317 32.6793 23.5663L30.0442 26.1855C29.5572 26.6724 29.2891 27.3198 29.2891 28.0085C29.2891 28.6971 29.5572 29.3445 30.043 29.8303L32.6763 32.4737C32.8443 32.6423 33.0647 32.7266 33.2852 32.7266C33.5045 32.7266 33.724 32.6431 33.8917 32.476C34.2279 32.1411 34.229 31.5969 33.894 31.2607L31.5446 28.9023H38.1406C38.6153 28.9023 39 28.5176 39 28.043C39 27.5683 38.6153 27.1836 38.1406 27.1836Z" fill="#101828"/>
<path d="M36.4219 17H32.2109C31.7363 17 31.3516 17.3847 31.3516 17.8594C31.3516 18.334 31.7363 18.7187 32.2109 18.7187H36.4219C36.8957 18.7187 37.2812 19.1043 37.2812 19.5781V23.7031C37.2812 24.1778 37.666 24.5625 38.1406 24.5625C38.6153 24.5625 39 24.1778 39 23.7031V19.5781C39 18.1565 37.8435 17 36.4219 17Z" fill="#101828"/>
<path d="M38.1406 31.4805C37.666 31.4805 37.2812 31.8652 37.2812 32.3398V36.4219C37.2812 36.8957 36.8957 37.2812 36.4219 37.2812H32.2109C31.7363 37.2812 31.3516 37.666 31.3516 38.1406C31.3516 38.6153 31.7363 39 32.2109 39H36.4219C37.8435 39 39 37.8435 39 36.4219V32.3398C39 31.8652 38.6153 31.4805 38.1406 31.4805Z" fill="#101828"/>
<path d="M23.3207 23.5663L24.7306 22.1478L24.7305 22.1477L23.3207 23.5663ZM22.1053 23.57L23.5238 24.9799L23.5239 24.9798L22.1053 23.57ZM22.109 24.7853L23.5189 23.3668L23.5189 23.3667L22.109 24.7853ZM24.5219 27.1836V29.1836H29.3712L25.9319 25.7651L24.5219 27.1836ZM24.4554 28.9023L25.8723 30.3139L29.2708 26.9023H24.4554V28.9023ZM22.106 31.2607L23.5229 32.6723L23.5229 32.6722L22.106 31.2607ZM22.1083 32.476L20.6968 33.8929L20.6969 33.8929L22.1083 32.476ZM23.3237 32.4737L21.9068 31.0622L21.9066 31.0624L23.3237 32.4737ZM25.9558 29.8315L24.5416 28.4173L24.5389 28.42L25.9558 29.8315ZM25.954 26.1836L27.3681 24.7693L27.3639 24.7651L25.954 26.1836ZM31.4781 27.1836L30.0682 25.7651L26.6288 29.1836H31.4781V27.1836ZM33.891 24.7853L35.3009 26.2038L35.3009 26.2038L33.891 24.7853ZM32.6793 23.5663L34.0893 24.9848L34.0893 24.9847L32.6793 23.5663ZM30.0442 26.1855L28.6343 24.767L28.63 24.7713L30.0442 26.1855ZM30.043 29.8303L31.4599 28.4188L31.4572 28.4161L30.043 29.8303ZM32.6763 32.4737L34.0933 31.0622L34.0932 31.0622L32.6763 32.4737ZM33.8917 32.476L35.3031 33.8929L35.3032 33.8929L33.8917 32.476ZM33.894 31.2607L32.4771 32.6722L32.4771 32.6723L33.894 31.2607ZM31.5446 28.9023V26.9023H26.7292L30.1277 30.3139L31.5446 28.9023ZM23.7891 35.2812H19.5781V39.2812H23.7891V35.2812ZM19.5781 35.2812C20.2088 35.2812 20.7188 35.7912 20.7188 36.4219H16.7188C16.7188 38.0003 17.9997 39.2812 19.5781 39.2812V35.2812ZM20.7188 36.4219V32.3398H16.7188V36.4219H20.7188ZM20.7188 32.3398C20.7188 30.7606 19.4386 29.4805 17.8594 29.4805V33.4805C17.2294 33.4805 16.7188 32.9698 16.7188 32.3398H20.7188ZM17.8594 29.4805C16.2802 29.4805 15 30.7606 15 32.3398H19C19 32.9698 18.4893 33.4805 17.8594 33.4805V29.4805ZM15 32.3398V36.4219H19V32.3398H15ZM15 36.4219C15 38.948 17.052 41 19.5781 41V37C19.2611 37 19 36.7389 19 36.4219H15ZM19.5781 41H23.7891V37H19.5781V41ZM23.7891 41C25.3683 41 26.6484 39.7198 26.6484 38.1406H22.6484C22.6484 37.5107 23.1591 37 23.7891 37V41ZM26.6484 38.1406C26.6484 36.5614 25.3683 35.2812 23.7891 35.2812V39.2812C23.1591 39.2812 22.6484 38.7706 22.6484 38.1406H26.6484ZM24.7305 22.1477C23.6106 21.0346 21.8001 21.0399 20.6868 22.1601L23.5239 24.9798C23.0797 25.4268 22.3575 25.4288 21.9108 24.9848L24.7305 22.1477ZM20.6869 22.16C19.5735 23.2801 19.5791 25.0906 20.6992 26.2038L23.5189 23.3667C23.9657 23.8108 23.968 24.5331 23.5238 24.9799L20.6869 22.16ZM20.6991 26.2038L23.112 28.6021L25.9319 25.7651L23.5189 23.3668L20.6991 26.2038ZM24.5219 25.1836H17.8594V29.1836H24.5219V25.1836ZM17.8594 25.1836C16.2802 25.1836 15 26.4638 15 28.043H19C19 28.6729 18.4893 29.1836 17.8594 29.1836V25.1836ZM15 28.043C15 29.6222 16.2802 30.9023 17.8594 30.9023V26.9023C18.4893 26.9023 19 27.413 19 28.043H15ZM17.8594 30.9023H24.4554V26.9023H17.8594V30.9023ZM23.0385 27.4908L20.6891 29.8492L23.5229 32.6722L25.8723 30.3139L23.0385 27.4908ZM20.6892 29.8491C19.5745 30.968 19.5781 32.7785 20.6968 33.8929L23.5198 31.0591C23.9661 31.5036 23.9676 32.2259 23.5229 32.6723L20.6892 29.8491ZM20.6969 33.8929C21.2544 34.4483 21.9879 34.7266 22.7148 34.7266V30.7266C23.003 30.7266 23.2977 30.8378 23.5198 31.0591L20.6969 33.8929ZM22.7148 34.7266C23.4452 34.7266 24.1823 34.4457 24.7408 33.885L21.9066 31.0624C22.1292 30.8388 22.4255 30.7266 22.7148 30.7266V34.7266ZM24.7406 33.8852L27.3727 31.243L24.5389 28.42L21.9068 31.0622L24.7406 33.8852ZM27.37 31.2457C28.232 30.3837 28.7109 29.2276 28.7109 28.0085H24.7109C24.7109 28.1667 24.6535 28.3054 24.5416 28.4173L27.37 31.2457ZM28.7109 28.0085C28.7109 26.7884 28.2313 25.6325 27.3681 24.7693L24.5398 27.5979C24.6542 27.7123 24.7109 27.8513 24.7109 28.0085H28.7109ZM27.3639 24.7651L24.7306 22.1478L21.9107 24.9848L24.544 27.6021L27.3639 24.7651ZM17.8594 26.5625C19.4386 26.5625 20.7187 25.2823 20.7187 23.7031H16.7187C16.7187 23.0732 17.2294 22.5625 17.8594 22.5625V26.5625ZM20.7187 23.7031V19.5781H16.7187V23.7031H20.7187ZM20.7187 19.5781C20.7187 20.2088 20.2088 20.7187 19.5781 20.7187V16.7187C17.9997 16.7187 16.7187 17.9997 16.7187 19.5781H20.7187ZM19.5781 20.7187H23.7891V16.7187H19.5781V20.7187ZM23.7891 20.7187C25.3683 20.7187 26.6484 19.4386 26.6484 17.8594H22.6484C22.6484 17.2294 23.1591 16.7187 23.7891 16.7187V20.7187ZM26.6484 17.8594C26.6484 16.2802 25.3683 15 23.7891 15V19C23.1591 19 22.6484 18.4893 22.6484 17.8594H26.6484ZM23.7891 15H19.5781V19H23.7891V15ZM19.5781 15C17.052 15 15 17.052 15 19.5781H19C19 19.2611 19.2611 19 19.5781 19V15ZM15 19.5781V23.7031H19V19.5781H15ZM15 23.7031C15 25.2823 16.2802 26.5625 17.8594 26.5625V22.5625C18.4893 22.5625 19 23.0732 19 23.7031H15ZM38.1406 25.1836H31.4781V29.1836H38.1406V25.1836ZM32.888 28.6021L35.3009 26.2038L32.4811 23.3668L30.0682 25.7651L32.888 28.6021ZM35.3009 26.2038C36.4208 25.0906 36.4265 23.2801 35.3131 22.16L32.4762 24.9799C32.032 24.533 32.0344 23.8108 32.481 23.3668L35.3009 26.2038ZM35.3131 22.16C34.2 21.0401 32.3895 21.0344 31.2694 22.1478L34.0893 24.9847C33.6424 25.4289 32.9202 25.4266 32.4762 24.9799L35.3131 22.16ZM31.2694 22.1478L28.6343 24.767L31.4541 27.604L34.0893 24.9848L31.2694 22.1478ZM28.63 24.7713C27.768 25.6333 27.2891 26.7894 27.2891 28.0085H31.2891C31.2891 27.8503 31.3465 27.7116 31.4584 27.5997L28.63 24.7713ZM27.2891 28.0085C27.2891 29.2269 27.7675 30.3832 28.6288 31.2445L31.4572 28.4161C31.347 28.3059 31.2891 28.1674 31.2891 28.0085H27.2891ZM28.6261 31.2419L31.2594 33.8852L34.0932 31.0622L31.4599 28.4188L28.6261 31.2419ZM31.2594 33.8852C31.8177 34.4456 32.5547 34.7266 33.2852 34.7266V30.7266C33.5747 30.7266 33.8708 30.8389 34.0933 31.0622L31.2594 33.8852ZM33.2852 34.7266C34.012 34.7266 34.7456 34.4484 35.3031 33.8929L32.4802 31.0591C32.7023 30.8378 32.997 30.7266 33.2852 30.7266V34.7266ZM35.3032 33.8929C36.4219 32.7785 36.4255 30.968 35.3108 29.8491L32.4771 32.6723C32.0324 32.2259 32.0339 31.5036 32.4802 31.0591L35.3032 33.8929ZM35.3109 29.8492L32.9615 27.4908L30.1277 30.3139L32.4771 32.6722L35.3109 29.8492ZM31.5446 30.9023H38.1406V26.9023H31.5446V30.9023ZM38.1406 30.9023C39.7198 30.9023 41 29.6222 41 28.043H37C37 27.413 37.5107 26.9023 38.1406 26.9023V30.9023ZM41 28.043C41 26.4638 39.7198 25.1836 38.1406 25.1836V29.1836C37.5107 29.1836 37 28.6729 37 28.043H41ZM36.4219 15H32.2109V19H36.4219V15ZM32.2109 15C30.6317 15 29.3516 16.2802 29.3516 17.8594H33.3516C33.3516 18.4893 32.8409 19 32.2109 19V15ZM29.3516 17.8594C29.3516 19.4386 30.6317 20.7187 32.2109 20.7187V16.7187C32.8409 16.7187 33.3516 17.2294 33.3516 17.8594H29.3516ZM32.2109 20.7187H36.4219V16.7187H32.2109V20.7187ZM36.4219 20.7187C35.7912 20.7187 35.2812 20.2088 35.2812 19.5781H39.2812C39.2812 17.9997 38.0003 16.7187 36.4219 16.7187V20.7187ZM35.2812 19.5781V23.7031H39.2812V19.5781H35.2812ZM35.2812 23.7031C35.2812 25.2823 36.5614 26.5625 38.1406 26.5625V22.5625C38.7706 22.5625 39.2812 23.0732 39.2812 23.7031H35.2812ZM38.1406 26.5625C39.7198 26.5625 41 25.2823 41 23.7031H37C37 23.0732 37.5107 22.5625 38.1406 22.5625V26.5625ZM41 23.7031V19.5781H37V23.7031H41ZM41 19.5781C41 17.052 38.948 15 36.4219 15V19C36.7389 19 37 19.2611 37 19.5781H41ZM38.1406 29.4805C36.5614 29.4805 35.2812 30.7606 35.2812 32.3398H39.2812C39.2812 32.9698 38.7706 33.4805 38.1406 33.4805V29.4805ZM35.2812 32.3398V36.4219H39.2812V32.3398H35.2812ZM35.2812 36.4219C35.2812 35.7912 35.7912 35.2812 36.4219 35.2812V39.2812C38.0003 39.2812 39.2812 38.0003 39.2812 36.4219H35.2812ZM36.4219 35.2812H32.2109V39.2812H36.4219V35.2812ZM32.2109 35.2812C30.6317 35.2812 29.3516 36.5614 29.3516 38.1406H33.3516C33.3516 38.7706 32.8409 39.2812 32.2109 39.2812V35.2812ZM29.3516 38.1406C29.3516 39.7198 30.6317 41 32.2109 41V37C32.8409 37 33.3516 37.5107 33.3516 38.1406H29.3516ZM32.2109 41H36.4219V37H32.2109V41ZM36.4219 41C38.948 41 41 38.948 41 36.4219H37C37 36.7389 36.7389 37 36.4219 37V41ZM41 36.4219V32.3398H37V36.4219H41ZM41 32.3398C41 30.7606 39.7198 29.4805 38.1406 29.4805V33.4805C37.5107 33.4805 37 32.9698 37 32.3398H41Z" fill="#7F56D9" mask="url(#path-2-inside-1_401_31670)"/>
<rect x="4" y="4" width="48" height="48" rx="24" stroke="#F9F5FF" stroke-width="8"/>
</svg>
