<svg width="46" height="46" viewBox="0 0 46 46" fill="none" xmlns="http://www.w3.org/2000/svg">
<rect x="3" y="3" width="40" height="40" rx="20" fill="#F4EBFF"/>
<path d="M31.3334 22.2334V23C31.3323 24.797 30.7504 26.5456 29.6745 27.9849C28.5985 29.4242 27.0861 30.4771 25.3628 30.9866C23.6395 31.4961 21.7977 31.4349 20.1121 30.8122C18.4264 30.1894 16.9872 29.0384 16.0092 27.5309C15.0311 26.0234 14.5665 24.2401 14.6848 22.447C14.803 20.6538 15.4977 18.947 16.6653 17.5809C17.8328 16.2149 19.4107 15.2628 21.1635 14.8668C22.9163 14.4708 24.7502 14.652 26.3917 15.3834M31.3334 16.3334L23 24.675L20.5 22.175" stroke="#7F56D9" stroke-width="1.66667" stroke-linecap="round" stroke-linejoin="round"/>
<rect x="3" y="3" width="40" height="40" rx="20" stroke="#F9F5FF" stroke-width="6"/>
</svg>
