<svg width="24" height="25" viewBox="0 0 24 25" fill="none" xmlns="http://www.w3.org/2000/svg">
<path d="M4.67271 3.53676C4.28219 3.14623 3.64902 3.14623 3.2585 3.53676C2.86798 3.92728 2.86798 4.56045 3.2585 4.95097L4.67271 3.53676ZM19.3272 21.0197C19.7178 21.4102 20.3509 21.4102 20.7415 21.0197C21.132 20.6292 21.132 19.996 20.7415 19.6055L19.3272 21.0197ZM4.5 5.02817H19.5V3.02817H4.5V5.02817ZM19.5 5.02817C19.3619 5.02817 19.25 4.91624 19.25 4.77817H21.25C21.25 3.81167 20.4665 3.02817 19.5 3.02817V5.02817ZM19.25 4.77817V19.7782H21.25V4.77817H19.25ZM19.25 19.7782C19.25 19.6401 19.3619 19.5282 19.5 19.5282V21.5282C20.4665 21.5282 21.25 20.7447 21.25 19.7782H19.25ZM19.5 19.5282H4.5V21.5282H19.5V19.5282ZM4.5 19.5282C4.63807 19.5282 4.75 19.6401 4.75 19.7782H2.75C2.75 20.7447 3.5335 21.5282 4.5 21.5282V19.5282ZM4.75 19.7782V4.77817H2.75V19.7782H4.75ZM4.75 4.77817C4.75 4.91624 4.63807 5.02817 4.5 5.02817V3.02817C3.5335 3.02817 2.75 3.81167 2.75 4.77817H4.75ZM3.2585 4.95097L19.3272 21.0197L20.7415 19.6055L4.67271 3.53676L3.2585 4.95097Z" fill="#667085"/>
</svg>
