<svg width="24" height="25" viewBox="0 0 24 25" fill="none" xmlns="http://www.w3.org/2000/svg">
<g clip-path="url(#clip0_404_22891)">
<path d="M12 15.2782C13.6569 15.2782 15 13.935 15 12.2782C15 10.6213 13.6569 9.27817 12 9.27817C10.3431 9.27817 9 10.6213 9 12.2782C9 13.935 10.3431 15.2782 12 15.2782Z" stroke="#667085" stroke-width="2" stroke-linecap="round" stroke-linejoin="round"/>
<path d="M19.4 15.2782C19.2669 15.5798 19.2272 15.9144 19.286 16.2388C19.3448 16.5632 19.4995 16.8625 19.73 17.0982L19.79 17.1582C19.976 17.3439 20.1235 17.5645 20.2241 17.8073C20.3248 18.0501 20.3766 18.3103 20.3766 18.5732C20.3766 18.836 20.3248 19.0963 20.2241 19.339C20.1235 19.5818 19.976 19.8024 19.79 19.9882C19.6043 20.1741 19.3837 20.3216 19.1409 20.4223C18.8981 20.5229 18.6378 20.5747 18.375 20.5747C18.1122 20.5747 17.8519 20.5229 17.6091 20.4223C17.3663 20.3216 17.1457 20.1741 16.96 19.9882L16.9 19.9282C16.6643 19.6976 16.365 19.543 16.0406 19.4842C15.7162 19.4253 15.3816 19.4651 15.08 19.5982C14.7842 19.7249 14.532 19.9354 14.3543 20.2037C14.1766 20.472 14.0813 20.7864 14.08 21.1082V21.2782C14.08 21.8086 13.8693 22.3173 13.4942 22.6924C13.1191 23.0675 12.6104 23.2782 12.08 23.2782C11.5496 23.2782 11.0409 23.0675 10.6658 22.6924C10.2907 22.3173 10.08 21.8086 10.08 21.2782V21.1882C10.0723 20.8572 9.96512 20.5362 9.77251 20.2669C9.5799 19.9976 9.31074 19.7925 9 19.6782C8.69838 19.5451 8.36381 19.5053 8.03941 19.5642C7.71502 19.623 7.41568 19.7776 7.18 20.0082L7.12 20.0682C6.93425 20.2541 6.71368 20.4016 6.47088 20.5023C6.22808 20.6029 5.96783 20.6547 5.705 20.6547C5.44217 20.6547 5.18192 20.6029 4.93912 20.5023C4.69632 20.4016 4.47575 20.2541 4.29 20.0682C4.10405 19.8824 3.95653 19.6618 3.85588 19.419C3.75523 19.1763 3.70343 18.916 3.70343 18.6532C3.70343 18.3903 3.75523 18.1301 3.85588 17.8873C3.95653 17.6445 4.10405 17.4239 4.29 17.2382L4.35 17.1782C4.58054 16.9425 4.73519 16.6432 4.794 16.3188C4.85282 15.9944 4.81312 15.6598 4.68 15.3582C4.55324 15.0624 4.34276 14.8102 4.07447 14.6325C3.80618 14.4548 3.49179 14.3595 3.17 14.3582H3C2.46957 14.3582 1.96086 14.1475 1.58579 13.7724C1.21071 13.3973 1 12.8886 1 12.3582C1 11.8277 1.21071 11.319 1.58579 10.944C1.96086 10.5689 2.46957 10.3582 3 10.3582H3.09C3.42099 10.3504 3.742 10.2433 4.0113 10.0507C4.28059 9.85807 4.48572 9.5889 4.6 9.27817C4.73312 8.97655 4.77282 8.64197 4.714 8.31758C4.65519 7.99318 4.50054 7.69385 4.27 7.45817L4.21 7.39817C4.02405 7.21242 3.87653 6.99184 3.77588 6.74905C3.67523 6.50625 3.62343 6.246 3.62343 5.98317C3.62343 5.72034 3.67523 5.46008 3.77588 5.21729C3.87653 4.97449 4.02405 4.75391 4.21 4.56817C4.39575 4.38221 4.61632 4.2347 4.85912 4.13405C5.10192 4.0334 5.36217 3.98159 5.625 3.98159C5.88783 3.98159 6.14808 4.0334 6.39088 4.13405C6.63368 4.2347 6.85425 4.38221 7.04 4.56817L7.1 4.62817C7.33568 4.8587 7.63502 5.01335 7.95941 5.07217C8.28381 5.13099 8.61838 5.09128 8.92 4.95817H9C9.29577 4.8314 9.54802 4.62092 9.72569 4.35263C9.90337 4.08434 9.99872 3.76995 10 3.44817V3.27817C10 2.74773 10.2107 2.23903 10.5858 1.86395C10.9609 1.48888 11.4696 1.27817 12 1.27817C12.5304 1.27817 13.0391 1.48888 13.4142 1.86395C13.7893 2.23903 14 2.74773 14 3.27817V3.36817C14.0013 3.68995 14.0966 4.00434 14.2743 4.27263C14.452 4.54092 14.7042 4.7514 15 4.87817C15.3016 5.01128 15.6362 5.05099 15.9606 4.99217C16.285 4.93335 16.5843 4.7787 16.82 4.54817L16.88 4.48817C17.0657 4.30221 17.2863 4.1547 17.5291 4.05405C17.7719 3.9534 18.0322 3.90159 18.295 3.90159C18.5578 3.90159 18.8181 3.9534 19.0609 4.05405C19.3037 4.1547 19.5243 4.30221 19.71 4.48817C19.896 4.67391 20.0435 4.89449 20.1441 5.13729C20.2448 5.38008 20.2966 5.64034 20.2966 5.90317C20.2966 6.166 20.2448 6.42625 20.1441 6.66905C20.0435 6.91184 19.896 7.13242 19.71 7.31817L19.65 7.37817C19.4195 7.61385 19.2648 7.91318 19.206 8.23758C19.1472 8.56197 19.1869 8.89655 19.32 9.19817V9.27817C19.4468 9.57394 19.6572 9.82618 19.9255 10.0039C20.1938 10.1815 20.5082 10.2769 20.83 10.2782H21C21.5304 10.2782 22.0391 10.4889 22.4142 10.864C22.7893 11.239 23 11.7477 23 12.2782C23 12.8086 22.7893 13.3173 22.4142 13.6924C22.0391 14.0675 21.5304 14.2782 21 14.2782H20.91C20.5882 14.2795 20.2738 14.3748 20.0055 14.5525C19.7372 14.7302 19.5268 14.9824 19.4 15.2782Z" stroke="#667085" stroke-width="2" stroke-linecap="round" stroke-linejoin="round"/>
</g>
<defs>
<clipPath id="clip0_404_22891">
<rect width="24" height="24" fill="white" transform="translate(0 0.278168)"/>
</clipPath>
</defs>
</svg>
