<svg width="22" height="23" viewBox="0 0 22 23" fill="none" xmlns="http://www.w3.org/2000/svg">
<path d="M3.93 4.20817L8.17 8.44817M13.83 14.1082L18.07 18.3482M18.07 4.20817L13.83 8.44817L17.36 4.91817M3.93 18.3482L8.17 14.1082M21 11.2782C21 16.801 16.5228 21.2782 11 21.2782C5.47715 21.2782 1 16.801 1 11.2782C1 5.75532 5.47715 1.27817 11 1.27817C16.5228 1.27817 21 5.75532 21 11.2782ZM15 11.2782C15 13.4873 13.2091 15.2782 11 15.2782C8.79086 15.2782 7 13.4873 7 11.2782C7 9.06903 8.79086 7.27817 11 7.27817C13.2091 7.27817 15 9.06903 15 11.2782Z" stroke="#667085" stroke-width="2" stroke-linecap="round" stroke-linejoin="round"/>
</svg>
