<svg width="10" height="5" viewBox="0 0 10 5" fill="none" xmlns="http://www.w3.org/2000/svg">
<path d="M9.01729 4.23282L5.26729 0.482817C5.19619 0.412398 5.10017 0.372894 5.0001 0.372894C4.90004 0.372894 4.80401 0.412398 4.73292 0.482817L0.982916 4.23282C0.932044 4.28704 0.897562 4.35455 0.88346 4.42755C0.869358 4.50055 0.876212 4.57605 0.903229 4.64532C0.931917 4.71357 0.980166 4.7718 1.04189 4.81267C1.10362 4.85355 1.17607 4.87524 1.2501 4.875H8.7501C8.82414 4.87524 8.89659 4.85355 8.95831 4.81267C9.02004 4.7718 9.06829 4.71357 9.09698 4.64532C9.124 4.57605 9.13085 4.50055 9.11675 4.42755C9.10265 4.35455 9.06816 4.28704 9.01729 4.23282V4.23282Z" fill="#D0D5DD"/>
</svg>
